<svg width="156" height="12" viewBox="0 0 156 12" fill="none" xmlns="http://www.w3.org/2000/svg">
<path d="M3.99902 11.1436C3.02376 11.1436 2.2513 10.804 1.68164 10.125C1.11198 9.44596 0.827148 8.47298 0.827148 7.20605V4.84766C0.827148 3.58073 1.1097 2.60775 1.6748 1.92871C2.23991 1.24512 3.01009 0.90332 3.98535 0.90332C4.96517 0.90332 5.73991 1.24512 6.30957 1.92871C6.87923 2.60775 7.16406 3.58073 7.16406 4.84766V7.20605C7.16406 8.47754 6.88151 9.4528 6.31641 10.1318C5.7513 10.8063 4.97884 11.1436 3.99902 11.1436ZM3.99902 10.0908C5.21126 10.0908 5.81738 9.22038 5.81738 7.47949V4.56055C5.81738 2.82878 5.20671 1.96289 3.98535 1.96289C3.39746 1.96289 2.94857 2.18164 2.63867 2.61914C2.32878 3.05208 2.17383 3.69922 2.17383 4.56055V7.47949C2.17383 8.34082 2.33105 8.99251 2.64551 9.43457C2.95996 9.87207 3.41113 10.0908 3.99902 10.0908ZM12.7996 9.94727V2.48926L11.2342 2.5166V1.67578L14.1463 1.04688V9.94727L15.6775 10.1387V11H11.2615V10.1387L12.7996 9.94727ZM21.0191 9.94727V2.48926L19.4537 2.5166V1.67578L22.3658 1.04688V9.94727L23.8971 10.1387V11H19.4811V10.1387L21.0191 9.94727ZM30.8725 11.1436C29.8972 11.1436 29.1247 10.804 28.5551 10.125C27.9854 9.44596 27.7006 8.47298 27.7006 7.20605V4.84766C27.7006 3.58073 27.9831 2.60775 28.5482 1.92871C29.1133 1.24512 29.8835 0.90332 30.8588 0.90332C31.8386 0.90332 32.6133 1.24512 33.183 1.92871C33.7527 2.60775 34.0375 3.58073 34.0375 4.84766V7.20605C34.0375 8.47754 33.7549 9.4528 33.1898 10.1318C32.6247 10.8063 31.8523 11.1436 30.8725 11.1436ZM30.8725 10.0908C32.0847 10.0908 32.6908 9.22038 32.6908 7.47949V4.56055C32.6908 2.82878 32.0801 1.96289 30.8588 1.96289C30.2709 1.96289 29.822 2.18164 29.5121 2.61914C29.2022 3.05208 29.0473 3.69922 29.0473 4.56055V7.47949C29.0473 8.34082 29.2045 8.99251 29.5189 9.43457C29.8334 9.87207 30.2846 10.0908 30.8725 10.0908ZM39.673 9.94727V2.48926L38.1076 2.5166V1.67578L41.0197 1.04688V9.94727L42.551 10.1387V11H38.135V10.1387L39.673 9.94727ZM49.5264 11.1436C48.5511 11.1436 47.7786 10.804 47.209 10.125C46.6393 9.44596 46.3545 8.47298 46.3545 7.20605V4.84766C46.3545 3.58073 46.637 2.60775 47.2021 1.92871C47.7673 1.24512 48.5374 0.90332 49.5127 0.90332C50.4925 0.90332 51.2673 1.24512 51.8369 1.92871C52.4066 2.60775 52.6914 3.58073 52.6914 4.84766V7.20605C52.6914 8.47754 52.4089 9.4528 51.8438 10.1318C51.2786 10.8063 50.5062 11.1436 49.5264 11.1436ZM49.5264 10.0908C50.7386 10.0908 51.3447 9.22038 51.3447 7.47949V4.56055C51.3447 2.82878 50.734 1.96289 49.5127 1.96289C48.9248 1.96289 48.4759 2.18164 48.166 2.61914C47.8561 3.05208 47.7012 3.69922 47.7012 4.56055V7.47949C47.7012 8.34082 47.8584 8.99251 48.1729 9.43457C48.4873 9.87207 48.9385 10.0908 49.5264 10.0908ZM59.9607 11.1436C58.9855 11.1436 58.213 10.804 57.6434 10.125C57.0737 9.44596 56.7889 8.47298 56.7889 7.20605V4.84766C56.7889 3.58073 57.0714 2.60775 57.6365 1.92871C58.2016 1.24512 58.9718 0.90332 59.9471 0.90332C60.9269 0.90332 61.7016 1.24512 62.2713 1.92871C62.841 2.60775 63.1258 3.58073 63.1258 4.84766V7.20605C63.1258 8.47754 62.8432 9.4528 62.2781 10.1318C61.713 10.8063 60.9406 11.1436 59.9607 11.1436ZM59.9607 10.0908C61.173 10.0908 61.7791 9.22038 61.7791 7.47949V4.56055C61.7791 2.82878 61.1684 1.96289 59.9471 1.96289C59.3592 1.96289 58.9103 2.18164 58.6004 2.61914C58.2905 3.05208 58.1355 3.69922 58.1355 4.56055V7.47949C58.1355 8.34082 58.2928 8.99251 58.6072 9.43457C58.9217 9.87207 59.3729 10.0908 59.9607 10.0908ZM70.3951 11.1436C69.4199 11.1436 68.6474 10.804 68.0777 10.125C67.5081 9.44596 67.2232 8.47298 67.2232 7.20605V4.84766C67.2232 3.58073 67.5058 2.60775 68.0709 1.92871C68.636 1.24512 69.4062 0.90332 70.3814 0.90332C71.3613 0.90332 72.136 1.24512 72.7057 1.92871C73.2753 2.60775 73.5602 3.58073 73.5602 4.84766V7.20605C73.5602 8.47754 73.2776 9.4528 72.7125 10.1318C72.1474 10.8063 71.3749 11.1436 70.3951 11.1436ZM70.3951 10.0908C71.6074 10.0908 72.2135 9.22038 72.2135 7.47949V4.56055C72.2135 2.82878 71.6028 1.96289 70.3814 1.96289C69.7936 1.96289 69.3447 2.18164 69.0348 2.61914C68.7249 3.05208 68.5699 3.69922 68.5699 4.56055V7.47949C68.5699 8.34082 68.7271 8.99251 69.0416 9.43457C69.3561 9.87207 69.8072 10.0908 70.3951 10.0908ZM88.0647 11.1436C87.0894 11.1436 86.3169 10.804 85.7473 10.125C85.1776 9.44596 84.8928 8.47298 84.8928 7.20605V4.84766C84.8928 3.58073 85.1753 2.60775 85.7404 1.92871C86.3055 1.24512 87.0757 0.90332 88.051 0.90332C89.0308 0.90332 89.8055 1.24512 90.3752 1.92871C90.9449 2.60775 91.2297 3.58073 91.2297 4.84766V7.20605C91.2297 8.47754 90.9471 9.4528 90.382 10.1318C89.8169 10.8063 89.0445 11.1436 88.0647 11.1436ZM88.0647 10.0908C89.2769 10.0908 89.883 9.22038 89.883 7.47949V4.56055C89.883 2.82878 89.2723 1.96289 88.051 1.96289C87.4631 1.96289 87.0142 2.18164 86.7043 2.61914C86.3944 3.05208 86.2395 3.69922 86.2395 4.56055V7.47949C86.2395 8.34082 86.3967 8.99251 86.7111 9.43457C87.0256 9.87207 87.4768 10.0908 88.0647 10.0908ZM96.8652 9.94727V2.48926L95.2998 2.5166V1.67578L98.2119 1.04688V9.94727L99.7432 10.1387V11H95.3271V10.1387L96.8652 9.94727ZM105.085 9.94727V2.48926L103.519 2.5166V1.67578L106.431 1.04688V9.94727L107.963 10.1387V11H103.547V10.1387L105.085 9.94727ZM114.938 11.1436C113.963 11.1436 113.19 10.804 112.621 10.125C112.051 9.44596 111.766 8.47298 111.766 7.20605V4.84766C111.766 3.58073 112.049 2.60775 112.614 1.92871C113.179 1.24512 113.949 0.90332 114.924 0.90332C115.904 0.90332 116.679 1.24512 117.249 1.92871C117.818 2.60775 118.103 3.58073 118.103 4.84766V7.20605C118.103 8.47754 117.821 9.4528 117.255 10.1318C116.69 10.8063 115.918 11.1436 114.938 11.1436ZM114.938 10.0908C116.15 10.0908 116.756 9.22038 116.756 7.47949V4.56055C116.756 2.82878 116.146 1.96289 114.924 1.96289C114.337 1.96289 113.888 2.18164 113.578 2.61914C113.268 3.05208 113.113 3.69922 113.113 4.56055V7.47949C113.113 8.34082 113.27 8.99251 113.585 9.43457C113.899 9.87207 114.35 10.0908 114.938 10.0908ZM123.739 9.94727V2.48926L122.173 2.5166V1.67578L125.085 1.04688V9.94727L126.617 10.1387V11H122.201V10.1387L123.739 9.94727ZM133.592 11.1436C132.617 11.1436 131.844 10.804 131.275 10.125C130.705 9.44596 130.42 8.47298 130.42 7.20605V4.84766C130.42 3.58073 130.703 2.60775 131.268 1.92871C131.833 1.24512 132.603 0.90332 133.578 0.90332C134.558 0.90332 135.333 1.24512 135.903 1.92871C136.472 2.60775 136.757 3.58073 136.757 4.84766V7.20605C136.757 8.47754 136.474 9.4528 135.909 10.1318C135.344 10.8063 134.572 11.1436 133.592 11.1436ZM133.592 10.0908C134.804 10.0908 135.41 9.22038 135.41 7.47949V4.56055C135.41 2.82878 134.8 1.96289 133.578 1.96289C132.99 1.96289 132.542 2.18164 132.232 2.61914C131.922 3.05208 131.767 3.69922 131.767 4.56055V7.47949C131.767 8.34082 131.924 8.99251 132.238 9.43457C132.553 9.87207 133.004 10.0908 133.592 10.0908ZM144.026 11.1436C143.051 11.1436 142.279 10.804 141.709 10.125C141.139 9.44596 140.854 8.47298 140.854 7.20605V4.84766C140.854 3.58073 141.137 2.60775 141.702 1.92871C142.267 1.24512 143.037 0.90332 144.013 0.90332C144.993 0.90332 145.767 1.24512 146.337 1.92871C146.907 2.60775 147.191 3.58073 147.191 4.84766V7.20605C147.191 8.47754 146.909 9.4528 146.344 10.1318C145.779 10.8063 145.006 11.1436 144.026 11.1436ZM144.026 10.0908C145.239 10.0908 145.845 9.22038 145.845 7.47949V4.56055C145.845 2.82878 145.234 1.96289 144.013 1.96289C143.425 1.96289 142.976 2.18164 142.666 2.61914C142.356 3.05208 142.201 3.69922 142.201 4.56055V7.47949C142.201 8.34082 142.358 8.99251 142.673 9.43457C142.987 9.87207 143.438 10.0908 144.026 10.0908ZM152.827 9.94727V2.48926L151.262 2.5166V1.67578L154.174 1.04688V9.94727L155.705 10.1387V11H151.289V10.1387L152.827 9.94727Z" fill="white"/>
</svg>
